<svg id="visual" viewBox="0 0 900 600" width="900" height="600" xmlns="http://www.w3.org/2000/svg" xmlns:xlink="http://www.w3.org/1999/xlink" version="1.1"><rect x="0" y="0" width="900" height="600" fill="#001220"></rect><path d="M0 453L12.5 454.7C25 456.3 50 459.7 75 460.5C100 461.3 125 459.7 150 458.3C175 457 200 456 225 453.8C250 451.7 275 448.3 300 451C325 453.7 350 462.3 375 464.2C400 466 425 461 450 461.3C475 461.7 500 467.3 525 464.2C550 461 575 449 600 439.8C625 430.7 650 424.3 675 424.3C700 424.3 725 430.7 750 434.3C775 438 800 439 825 443.8C850 448.7 875 457.3 887.5 461.7L900 466L900 601L887.5 601C875 601 850 601 825 601C800 601 775 601 750 601C725 601 700 601 675 601C650 601 625 601 600 601C575 601 550 601 525 601C500 601 475 601 450 601C425 601 400 601 375 601C350 601 325 601 300 601C275 601 250 601 225 601C200 601 175 601 150 601C125 601 100 601 75 601C50 601 25 601 12.5 601L0 601Z" fill="#fbae3c"></path><path d="M0 457L12.5 455.2C25 453.3 50 449.7 75 452C100 454.3 125 462.7 150 466.2C175 469.7 200 468.3 225 463.7C250 459 275 451 300 451.5C325 452 350 461 375 465.2C400 469.3 425 468.7 450 471C475 473.3 500 478.7 525 481C550 483.3 575 482.7 600 477.7C625 472.7 650 463.3 675 458.7C700 454 725 454 750 453.2C775 452.3 800 450.7 825 451.2C850 451.7 875 454.3 887.5 455.7L900 457L900 601L887.5 601C875 601 850 601 825 601C800 601 775 601 750 601C725 601 700 601 675 601C650 601 625 601 600 601C575 601 550 601 525 601C500 601 475 601 450 601C425 601 400 601 375 601C350 601 325 601 300 601C275 601 250 601 225 601C200 601 175 601 150 601C125 601 100 601 75 601C50 601 25 601 12.5 601L0 601Z" fill="#fb913f"></path><path d="M0 516L12.5 512.3C25 508.7 50 501.3 75 496.3C100 491.3 125 488.7 150 486.5C175 484.3 200 482.7 225 487.2C250 491.7 275 502.3 300 505.7C325 509 350 505 375 500.8C400 496.7 425 492.3 450 490C475 487.7 500 487.3 525 492.2C550 497 575 507 600 507.3C625 507.7 650 498.3 675 495.5C700 492.7 725 496.3 750 500.5C775 504.7 800 509.3 825 505.3C850 501.3 875 488.7 887.5 482.3L900 476L900 601L887.5 601C875 601 850 601 825 601C800 601 775 601 750 601C725 601 700 601 675 601C650 601 625 601 600 601C575 601 550 601 525 601C500 601 475 601 450 601C425 601 400 601 375 601C350 601 325 601 300 601C275 601 250 601 225 601C200 601 175 601 150 601C125 601 100 601 75 601C50 601 25 601 12.5 601L0 601Z" fill="#f77347"></path><path d="M0 538L12.5 532C25 526 50 514 75 511.8C100 509.7 125 517.3 150 522.2C175 527 200 529 225 525.3C250 521.7 275 512.3 300 509.3C325 506.3 350 509.7 375 514.8C400 520 425 527 450 526C475 525 500 516 525 515.5C550 515 575 523 600 525C625 527 650 523 675 518.2C700 513.3 725 507.7 750 505.3C775 503 800 504 825 510C850 516 875 527 887.5 532.5L900 538L900 601L887.5 601C875 601 850 601 825 601C800 601 775 601 750 601C725 601 700 601 675 601C650 601 625 601 600 601C575 601 550 601 525 601C500 601 475 601 450 601C425 601 400 601 375 601C350 601 325 601 300 601C275 601 250 601 225 601C200 601 175 601 150 601C125 601 100 601 75 601C50 601 25 601 12.5 601L0 601Z" fill="#ec5752"></path><path d="M0 543L12.5 541.2C25 539.3 50 535.7 75 538C100 540.3 125 548.7 150 552.7C175 556.7 200 556.3 225 551.5C250 546.7 275 537.3 300 535.3C325 533.3 350 538.7 375 537.8C400 537 425 530 450 528.7C475 527.3 500 531.7 525 536C550 540.3 575 544.7 600 547C625 549.3 650 549.7 675 547.8C700 546 725 542 750 538.2C775 534.3 800 530.7 825 532.8C850 535 875 543 887.5 547L900 551L900 601L887.5 601C875 601 850 601 825 601C800 601 775 601 750 601C725 601 700 601 675 601C650 601 625 601 600 601C575 601 550 601 525 601C500 601 475 601 450 601C425 601 400 601 375 601C350 601 325 601 300 601C275 601 250 601 225 601C200 601 175 601 150 601C125 601 100 601 75 601C50 601 25 601 12.5 601L0 601Z" fill="#dc3c5d"></path><path d="M0 564L12.5 562C25 560 50 556 75 558C100 560 125 568 150 568.7C175 569.3 200 562.7 225 561C250 559.3 275 562.7 300 564.3C325 566 350 566 375 565.3C400 564.7 425 563.3 450 561C475 558.7 500 555.3 525 556.8C550 558.3 575 564.7 600 564.5C625 564.3 650 557.7 675 555C700 552.3 725 553.7 750 555.7C775 557.7 800 560.3 825 560.5C850 560.7 875 558.3 887.5 557.2L900 556L900 601L887.5 601C875 601 850 601 825 601C800 601 775 601 750 601C725 601 700 601 675 601C650 601 625 601 600 601C575 601 550 601 525 601C500 601 475 601 450 601C425 601 400 601 375 601C350 601 325 601 300 601C275 601 250 601 225 601C200 601 175 601 150 601C125 601 100 601 75 601C50 601 25 601 12.5 601L0 601Z" fill="#c62368"></path></svg>