<svg id="visual" viewBox="0 0 900 600" width="900" height="600" xmlns="http://www.w3.org/2000/svg" xmlns:xlink="http://www.w3.org/1999/xlink" version="1.1"><rect x="0" y="0" width="900" height="600" fill="#001220"></rect><path d="M0 377L21.5 373.7C43 370.3 86 363.7 128.8 369.2C171.7 374.7 214.3 392.3 257.2 393.8C300 395.3 343 380.7 385.8 383.2C428.7 385.7 471.3 405.3 514.2 418.2C557 431 600 437 642.8 426.5C685.7 416 728.3 389 771.2 375.5C814 362 857 362 878.5 362L900 362L900 601L878.5 601C857 601 814 601 771.2 601C728.3 601 685.7 601 642.8 601C600 601 557 601 514.2 601C471.3 601 428.7 601 385.8 601C343 601 300 601 257.2 601C214.3 601 171.7 601 128.8 601C86 601 43 601 21.5 601L0 601Z" fill="#fa7268"></path><path d="M0 464L21.5 460.2C43 456.3 86 448.7 128.8 437C171.7 425.3 214.3 409.7 257.2 415.5C300 421.3 343 448.7 385.8 462.5C428.7 476.3 471.3 476.7 514.2 465.2C557 453.7 600 430.3 642.8 418C685.7 405.7 728.3 404.3 771.2 411.8C814 419.3 857 435.7 878.5 443.8L900 452L900 601L878.5 601C857 601 814 601 771.2 601C728.3 601 685.7 601 642.8 601C600 601 557 601 514.2 601C471.3 601 428.7 601 385.8 601C343 601 300 601 257.2 601C214.3 601 171.7 601 128.8 601C86 601 43 601 21.5 601L0 601Z" fill="#ef5f67"></path><path d="M0 490L21.5 488.7C43 487.3 86 484.7 128.8 487C171.7 489.3 214.3 496.7 257.2 495C300 493.3 343 482.7 385.8 475C428.7 467.3 471.3 462.7 514.2 463C557 463.3 600 468.7 642.8 473C685.7 477.3 728.3 480.7 771.2 476.3C814 472 857 460 878.5 454L900 448L900 601L878.5 601C857 601 814 601 771.2 601C728.3 601 685.7 601 642.8 601C600 601 557 601 514.2 601C471.3 601 428.7 601 385.8 601C343 601 300 601 257.2 601C214.3 601 171.7 601 128.8 601C86 601 43 601 21.5 601L0 601Z" fill="#e34c67"></path><path d="M0 486L21.5 486C43 486 86 486 128.8 485.8C171.7 485.7 214.3 485.3 257.2 487.7C300 490 343 495 385.8 494.5C428.7 494 471.3 488 514.2 489.8C557 491.7 600 501.3 642.8 504.3C685.7 507.3 728.3 503.7 771.2 506.3C814 509 857 518 878.5 522.5L900 527L900 601L878.5 601C857 601 814 601 771.2 601C728.3 601 685.7 601 642.8 601C600 601 557 601 514.2 601C471.3 601 428.7 601 385.8 601C343 601 300 601 257.2 601C214.3 601 171.7 601 128.8 601C86 601 43 601 21.5 601L0 601Z" fill="#d53867"></path><path d="M0 528L21.5 530.5C43 533 86 538 128.8 539.8C171.7 541.7 214.3 540.3 257.2 542.8C300 545.3 343 551.7 385.8 556.8C428.7 562 471.3 566 514.2 564.8C557 563.7 600 557.3 642.8 554.2C685.7 551 728.3 551 771.2 552.7C814 554.3 857 557.7 878.5 559.3L900 561L900 601L878.5 601C857 601 814 601 771.2 601C728.3 601 685.7 601 642.8 601C600 601 557 601 514.2 601C471.3 601 428.7 601 385.8 601C343 601 300 601 257.2 601C214.3 601 171.7 601 128.8 601C86 601 43 601 21.5 601L0 601Z" fill="#c62368"></path></svg>