<svg id="visual" viewBox="0 0 900 600" width="900" height="600" xmlns="http://www.w3.org/2000/svg" xmlns:xlink="http://www.w3.org/1999/xlink" version="1.1"><rect x="0" y="0" width="900" height="600" fill="#001220"></rect><path d="M0 365L12.5 373.3C25 381.7 50 398.3 75 410.2C100 422 125 429 150 431.5C175 434 200 432 225 420.3C250 408.7 275 387.3 300 389.8C325 392.3 350 418.7 375 422.8C400 427 425 409 450 409C475 409 500 427 525 427.5C550 428 575 411 600 411.3C625 411.7 650 429.3 675 431.7C700 434 725 421 750 417.2C775 413.3 800 418.7 825 413.5C850 408.3 875 392.7 887.5 384.8L900 377L900 601L887.5 601C875 601 850 601 825 601C800 601 775 601 750 601C725 601 700 601 675 601C650 601 625 601 600 601C575 601 550 601 525 601C500 601 475 601 450 601C425 601 400 601 375 601C350 601 325 601 300 601C275 601 250 601 225 601C200 601 175 601 150 601C125 601 100 601 75 601C50 601 25 601 12.5 601L0 601Z" fill="#fbae3c"></path><path d="M0 473L12.5 470.5C25 468 50 463 75 451.3C100 439.7 125 421.3 150 420.2C175 419 200 435 225 440.3C250 445.7 275 440.3 300 433.8C325 427.3 350 419.7 375 418.8C400 418 425 424 450 422.7C475 421.3 500 412.7 525 415.8C550 419 575 434 600 439.5C625 445 650 441 675 438.3C700 435.7 725 434.3 750 429.2C775 424 800 415 825 413.8C850 412.7 875 419.3 887.5 422.7L900 426L900 601L887.5 601C875 601 850 601 825 601C800 601 775 601 750 601C725 601 700 601 675 601C650 601 625 601 600 601C575 601 550 601 525 601C500 601 475 601 450 601C425 601 400 601 375 601C350 601 325 601 300 601C275 601 250 601 225 601C200 601 175 601 150 601C125 601 100 601 75 601C50 601 25 601 12.5 601L0 601Z" fill="#fb913f"></path><path d="M0 476L12.5 469C25 462 50 448 75 444C100 440 125 446 150 447.7C175 449.3 200 446.7 225 452.8C250 459 275 474 300 473.8C325 473.7 350 458.3 375 453.2C400 448 425 453 450 453.3C475 453.7 500 449.3 525 451.8C550 454.3 575 463.7 600 462.7C625 461.7 650 450.3 675 453C700 455.7 725 472.3 750 476.2C775 480 800 471 825 472C850 473 875 484 887.5 489.5L900 495L900 601L887.5 601C875 601 850 601 825 601C800 601 775 601 750 601C725 601 700 601 675 601C650 601 625 601 600 601C575 601 550 601 525 601C500 601 475 601 450 601C425 601 400 601 375 601C350 601 325 601 300 601C275 601 250 601 225 601C200 601 175 601 150 601C125 601 100 601 75 601C50 601 25 601 12.5 601L0 601Z" fill="#f77347"></path><path d="M0 492L12.5 496.7C25 501.3 50 510.7 75 512.5C100 514.3 125 508.7 150 509.2C175 509.7 200 516.3 225 514.5C250 512.7 275 502.3 300 495.2C325 488 350 484 375 481.3C400 478.7 425 477.3 450 478.8C475 480.3 500 484.7 525 491.7C550 498.7 575 508.3 600 507.8C625 507.3 650 496.7 675 492.2C700 487.7 725 489.3 750 487.5C775 485.7 800 480.3 825 481.2C850 482 875 489 887.5 492.5L900 496L900 601L887.5 601C875 601 850 601 825 601C800 601 775 601 750 601C725 601 700 601 675 601C650 601 625 601 600 601C575 601 550 601 525 601C500 601 475 601 450 601C425 601 400 601 375 601C350 601 325 601 300 601C275 601 250 601 225 601C200 601 175 601 150 601C125 601 100 601 75 601C50 601 25 601 12.5 601L0 601Z" fill="#ec5752"></path><path d="M0 519L12.5 519.8C25 520.7 50 522.3 75 526.3C100 530.3 125 536.7 150 535.8C175 535 200 527 225 522.7C250 518.3 275 517.7 300 517.2C325 516.7 350 516.3 375 521.2C400 526 425 536 450 535.5C475 535 500 524 525 524.3C550 524.7 575 536.3 600 541.2C625 546 650 544 675 539.3C700 534.7 725 527.3 750 524.8C775 522.3 800 524.7 825 527.2C850 529.7 875 532.3 887.5 533.7L900 535L900 601L887.5 601C875 601 850 601 825 601C800 601 775 601 750 601C725 601 700 601 675 601C650 601 625 601 600 601C575 601 550 601 525 601C500 601 475 601 450 601C425 601 400 601 375 601C350 601 325 601 300 601C275 601 250 601 225 601C200 601 175 601 150 601C125 601 100 601 75 601C50 601 25 601 12.5 601L0 601Z" fill="#dc3c5d"></path><path d="M0 545L12.5 545.2C25 545.3 50 545.7 75 545.2C100 544.7 125 543.3 150 545.8C175 548.3 200 554.7 225 559.5C250 564.3 275 567.7 300 565.5C325 563.3 350 555.7 375 550.8C400 546 425 544 450 545C475 546 500 550 525 552.3C550 554.7 575 555.3 600 556.7C625 558 650 560 675 560.2C700 560.3 725 558.7 750 560C775 561.3 800 565.7 825 567.7C850 569.7 875 569.3 887.5 569.2L900 569L900 601L887.5 601C875 601 850 601 825 601C800 601 775 601 750 601C725 601 700 601 675 601C650 601 625 601 600 601C575 601 550 601 525 601C500 601 475 601 450 601C425 601 400 601 375 601C350 601 325 601 300 601C275 601 250 601 225 601C200 601 175 601 150 601C125 601 100 601 75 601C50 601 25 601 12.5 601L0 601Z" fill="#c62368"></path></svg>