<svg id="visual" viewBox="0 0 900 600" width="900" height="600" xmlns="http://www.w3.org/2000/svg" xmlns:xlink="http://www.w3.org/1999/xlink" version="1.1"><rect x="0" y="0" width="900" height="600" fill="#001220"></rect><defs><linearGradient id="grad1_0" x1="33.3%" y1="100%" x2="100%" y2="0%"><stop offset="20%" stop-color="#fbae3c" stop-opacity="1"></stop><stop offset="80%" stop-color="#fbae3c" stop-opacity="1"></stop></linearGradient></defs><defs><linearGradient id="grad1_1" x1="33.3%" y1="100%" x2="100%" y2="0%"><stop offset="20%" stop-color="#fbae3c" stop-opacity="1"></stop><stop offset="80%" stop-color="#f48350" stop-opacity="1"></stop></linearGradient></defs><defs><linearGradient id="grad1_2" x1="33.3%" y1="100%" x2="100%" y2="0%"><stop offset="20%" stop-color="#d96162" stop-opacity="1"></stop><stop offset="80%" stop-color="#f48350" stop-opacity="1"></stop></linearGradient></defs><defs><linearGradient id="grad1_3" x1="33.3%" y1="100%" x2="100%" y2="0%"><stop offset="20%" stop-color="#d96162" stop-opacity="1"></stop><stop offset="80%" stop-color="#af4b6d" stop-opacity="1"></stop></linearGradient></defs><defs><linearGradient id="grad1_4" x1="33.3%" y1="100%" x2="100%" y2="0%"><stop offset="20%" stop-color="#7c3e6b" stop-opacity="1"></stop><stop offset="80%" stop-color="#af4b6d" stop-opacity="1"></stop></linearGradient></defs><defs><linearGradient id="grad1_5" x1="33.3%" y1="100%" x2="100%" y2="0%"><stop offset="20%" stop-color="#7c3e6b" stop-opacity="1"></stop><stop offset="80%" stop-color="#49335c" stop-opacity="1"></stop></linearGradient></defs><defs><linearGradient id="grad1_6" x1="33.3%" y1="100%" x2="100%" y2="0%"><stop offset="20%" stop-color="#1d2540" stop-opacity="1"></stop><stop offset="80%" stop-color="#49335c" stop-opacity="1"></stop></linearGradient></defs><defs><linearGradient id="grad1_7" x1="33.3%" y1="100%" x2="100%" y2="0%"><stop offset="20%" stop-color="#1d2540" stop-opacity="1"></stop><stop offset="80%" stop-color="#001220" stop-opacity="1"></stop></linearGradient></defs><defs><linearGradient id="grad2_0" x1="0%" y1="100%" x2="66.7%" y2="0%"><stop offset="20%" stop-color="#fbae3c" stop-opacity="1"></stop><stop offset="80%" stop-color="#fbae3c" stop-opacity="1"></stop></linearGradient></defs><defs><linearGradient id="grad2_1" x1="0%" y1="100%" x2="66.7%" y2="0%"><stop offset="20%" stop-color="#f48350" stop-opacity="1"></stop><stop offset="80%" stop-color="#fbae3c" stop-opacity="1"></stop></linearGradient></defs><defs><linearGradient id="grad2_2" x1="0%" y1="100%" x2="66.7%" y2="0%"><stop offset="20%" stop-color="#f48350" stop-opacity="1"></stop><stop offset="80%" stop-color="#d96162" stop-opacity="1"></stop></linearGradient></defs><defs><linearGradient id="grad2_3" x1="0%" y1="100%" x2="66.7%" y2="0%"><stop offset="20%" stop-color="#af4b6d" stop-opacity="1"></stop><stop offset="80%" stop-color="#d96162" stop-opacity="1"></stop></linearGradient></defs><defs><linearGradient id="grad2_4" x1="0%" y1="100%" x2="66.7%" y2="0%"><stop offset="20%" stop-color="#af4b6d" stop-opacity="1"></stop><stop offset="80%" stop-color="#7c3e6b" stop-opacity="1"></stop></linearGradient></defs><defs><linearGradient id="grad2_5" x1="0%" y1="100%" x2="66.7%" y2="0%"><stop offset="20%" stop-color="#49335c" stop-opacity="1"></stop><stop offset="80%" stop-color="#7c3e6b" stop-opacity="1"></stop></linearGradient></defs><defs><linearGradient id="grad2_6" x1="0%" y1="100%" x2="66.7%" y2="0%"><stop offset="20%" stop-color="#49335c" stop-opacity="1"></stop><stop offset="80%" stop-color="#1d2540" stop-opacity="1"></stop></linearGradient></defs><defs><linearGradient id="grad2_7" x1="0%" y1="100%" x2="66.7%" y2="0%"><stop offset="20%" stop-color="#001220" stop-opacity="1"></stop><stop offset="80%" stop-color="#1d2540" stop-opacity="1"></stop></linearGradient></defs><g transform="translate(900, 600)"><path d="M-351.5 0C-350.3 -25.9 -349.1 -51.9 -342.7 -78.2C-336.4 -104.6 -324.9 -131.4 -300.9 -144.9C-277 -158.5 -240.6 -158.8 -226.7 -180.8C-212.8 -202.8 -221.4 -246.5 -205.1 -257.2C-188.8 -267.9 -147.6 -245.7 -124.1 -257.7C-100.6 -269.7 -94.7 -316 -77 -337.3C-59.3 -358.7 -29.6 -355.1 0 -351.5L0 0Z" fill="#0c1c30"></path><path d="M-307.6 0C-306.5 -22.7 -305.5 -45.4 -299.9 -68.4C-294.3 -91.5 -284.3 -114.9 -263.3 -126.8C-242.4 -138.7 -210.5 -139 -198.4 -158.2C-186.2 -177.5 -193.8 -215.7 -179.5 -225.1C-165.2 -234.4 -129.2 -215 -108.6 -225.5C-88 -236 -82.9 -276.5 -67.4 -295.2C-51.9 -313.8 -25.9 -310.7 0 -307.6L0 0Z" fill="#312c4f"></path><path d="M-263.7 0C-262.7 -19.5 -261.8 -38.9 -257 -58.7C-252.3 -78.4 -243.6 -98.5 -225.7 -108.7C-207.7 -118.9 -180.5 -119.1 -170 -135.6C-159.6 -152.1 -166.1 -184.9 -153.8 -192.9C-141.6 -201 -110.7 -184.3 -93.1 -193.3C-75.4 -202.3 -71 -237 -57.7 -253C-44.4 -269 -22.2 -266.3 0 -263.7L0 0Z" fill="#623965"></path><path d="M-219.7 0C-218.9 -16.2 -218.2 -32.4 -214.2 -48.9C-210.2 -65.4 -203 -82.1 -188.1 -90.6C-173.1 -99 -150.4 -99.3 -141.7 -113C-133 -126.8 -138.4 -154.1 -128.2 -160.8C-118 -167.5 -92.3 -153.5 -77.6 -161C-62.9 -168.6 -59.2 -197.5 -48.1 -210.8C-37 -224.2 -18.5 -221.9 0 -219.7L0 0Z" fill="#96446e"></path><path d="M-175.8 0C-175.2 -13 -174.5 -25.9 -171.4 -39.1C-168.2 -52.3 -162.4 -65.7 -150.5 -72.5C-138.5 -79.2 -120.3 -79.4 -113.4 -90.4C-106.4 -101.4 -110.7 -123.3 -102.6 -128.6C-94.4 -134 -73.8 -122.8 -62 -128.8C-50.3 -134.8 -47.4 -158 -38.5 -168.7C-29.6 -179.3 -14.8 -177.6 0 -175.8L0 0Z" fill="#c55469"></path><path d="M-131.8 0C-131.4 -9.7 -130.9 -19.5 -128.5 -29.3C-126.1 -39.2 -121.8 -49.3 -112.8 -54.3C-103.9 -59.4 -90.2 -59.6 -85 -67.8C-79.8 -76.1 -83 -92.4 -76.9 -96.5C-70.8 -100.5 -55.4 -92.1 -46.5 -96.6C-37.7 -101.1 -35.5 -118.5 -28.9 -126.5C-22.2 -134.5 -11.1 -133.2 0 -131.8L0 0Z" fill="#e9705a"></path><path d="M-87.9 0C-87.6 -6.5 -87.3 -13 -85.7 -19.6C-84.1 -26.1 -81.2 -32.8 -75.2 -36.2C-69.2 -39.6 -60.2 -39.7 -56.7 -45.2C-53.2 -50.7 -55.4 -61.6 -51.3 -64.3C-47.2 -67 -36.9 -61.4 -31 -64.4C-25.1 -67.4 -23.7 -79 -19.2 -84.3C-14.8 -89.7 -7.4 -88.8 0 -87.9L0 0Z" fill="#fa9845"></path><path d="M-43.9 0C-43.8 -3.2 -43.6 -6.5 -42.8 -9.8C-42 -13.1 -40.6 -16.4 -37.6 -18.1C-34.6 -19.8 -30.1 -19.9 -28.3 -22.6C-26.6 -25.4 -27.7 -30.8 -25.6 -32.2C-23.6 -33.5 -18.5 -30.7 -15.5 -32.2C-12.6 -33.7 -11.8 -39.5 -9.6 -42.2C-7.4 -44.8 -3.7 -44.4 0 -43.9L0 0Z" fill="#fbae3c"></path></g><g transform="translate(0, 0)"><path d="M351.5 0C349.5 25.7 347.5 51.4 342.7 78.2C338 105.1 330.6 133.1 306.3 147.5C282.1 161.9 241.1 162.8 219.7 175.2C198.3 187.6 196.6 211.7 188.3 236.1C180 260.5 165.1 285.3 145.4 301.8C125.6 318.3 101.1 326.5 76.1 333.4C51.1 340.3 25.5 345.9 0 351.5L0 0Z" fill="#0c1c30"></path><path d="M307.6 0C305.8 22.5 304 45 299.9 68.4C295.7 91.9 289.2 116.5 268 129.1C246.8 141.7 210.9 142.4 192.2 153.3C173.5 164.2 172 185.2 164.8 206.6C157.5 228 144.4 249.7 127.2 264.1C109.9 278.5 88.5 285.7 66.6 291.7C44.7 297.8 22.3 302.7 0 307.6L0 0Z" fill="#312c4f"></path><path d="M263.7 0C262.1 19.3 260.6 38.5 257 58.7C253.5 78.8 247.9 99.8 229.7 110.6C211.6 121.5 180.8 122.1 164.8 131.4C148.7 140.7 147.5 158.8 141.2 177.1C135 195.4 123.8 214 109 226.4C94.2 238.7 75.8 244.9 57.1 250.1C38.3 255.2 19.2 259.5 0 263.7L0 0Z" fill="#623965"></path><path d="M219.7 0C218.4 16.1 217.2 32.1 214.2 48.9C211.2 65.7 206.6 83.2 191.5 92.2C176.3 101.2 150.7 101.7 137.3 109.5C124 117.3 122.9 132.3 117.7 147.6C112.5 162.8 103.2 178.3 90.8 188.6C78.5 199 63.2 204.1 47.6 208.4C31.9 212.7 16 216.2 0 219.7L0 0Z" fill="#96446e"></path><path d="M175.8 0C174.8 12.8 173.7 25.7 171.4 39.1C169 52.5 165.3 66.5 153.2 73.8C141 81 120.5 81.4 109.8 87.6C99.2 93.8 98.3 105.8 94.1 118.1C90 130.3 82.5 142.7 72.7 150.9C62.8 159.2 50.6 163.3 38.1 166.7C25.5 170.2 12.8 173 0 175.8L0 0Z" fill="#c55469"></path><path d="M131.8 0C131.1 9.6 130.3 19.3 128.5 29.3C126.7 39.4 124 49.9 114.9 55.3C105.8 60.7 90.4 61 82.4 65.7C74.4 70.4 73.7 79.4 70.6 88.5C67.5 97.7 61.9 107 54.5 113.2C47.1 119.4 37.9 122.4 28.5 125C19.2 127.6 9.6 129.7 0 131.8L0 0Z" fill="#e9705a"></path><path d="M87.9 0C87.4 6.4 86.9 12.8 85.7 19.6C84.5 26.3 82.6 33.3 76.6 36.9C70.5 40.5 60.3 40.7 54.9 43.8C49.6 46.9 49.2 52.9 47.1 59C45 65.1 41.3 71.3 36.3 75.5C31.4 79.6 25.3 81.6 19 83.4C12.8 85.1 6.4 86.5 0 87.9L0 0Z" fill="#fa9845"></path><path d="M43.9 0C43.7 3.2 43.4 6.4 42.8 9.8C42.2 13.1 41.3 16.6 38.3 18.4C35.3 20.2 30.1 20.3 27.5 21.9C24.8 23.5 24.6 26.5 23.5 29.5C22.5 32.6 20.6 35.7 18.2 37.7C15.7 39.8 12.6 40.8 9.5 41.7C6.4 42.5 3.2 43.2 0 43.9L0 0Z" fill="#fbae3c"></path></g></svg>