<svg id="visual" viewBox="0 0 900 600" width="900" height="600" xmlns="http://www.w3.org/2000/svg" xmlns:xlink="http://www.w3.org/1999/xlink" version="1.1"><rect x="0" y="0" width="900" height="600" fill="#001220"></rect><defs><linearGradient id="grad1_0" x1="33.3%" y1="0%" x2="100%" y2="100%"><stop offset="20%" stop-color="#fbae3c" stop-opacity="1"></stop><stop offset="80%" stop-color="#fbae3c" stop-opacity="1"></stop></linearGradient></defs><defs><linearGradient id="grad1_1" x1="33.3%" y1="0%" x2="100%" y2="100%"><stop offset="20%" stop-color="#fbae3c" stop-opacity="1"></stop><stop offset="80%" stop-color="#f48350" stop-opacity="1"></stop></linearGradient></defs><defs><linearGradient id="grad1_2" x1="33.3%" y1="0%" x2="100%" y2="100%"><stop offset="20%" stop-color="#d96162" stop-opacity="1"></stop><stop offset="80%" stop-color="#f48350" stop-opacity="1"></stop></linearGradient></defs><defs><linearGradient id="grad1_3" x1="33.3%" y1="0%" x2="100%" y2="100%"><stop offset="20%" stop-color="#d96162" stop-opacity="1"></stop><stop offset="80%" stop-color="#af4b6d" stop-opacity="1"></stop></linearGradient></defs><defs><linearGradient id="grad1_4" x1="33.3%" y1="0%" x2="100%" y2="100%"><stop offset="20%" stop-color="#7c3e6b" stop-opacity="1"></stop><stop offset="80%" stop-color="#af4b6d" stop-opacity="1"></stop></linearGradient></defs><defs><linearGradient id="grad1_5" x1="33.3%" y1="0%" x2="100%" y2="100%"><stop offset="20%" stop-color="#7c3e6b" stop-opacity="1"></stop><stop offset="80%" stop-color="#49335c" stop-opacity="1"></stop></linearGradient></defs><defs><linearGradient id="grad1_6" x1="33.3%" y1="0%" x2="100%" y2="100%"><stop offset="20%" stop-color="#1d2540" stop-opacity="1"></stop><stop offset="80%" stop-color="#49335c" stop-opacity="1"></stop></linearGradient></defs><defs><linearGradient id="grad1_7" x1="33.3%" y1="0%" x2="100%" y2="100%"><stop offset="20%" stop-color="#1d2540" stop-opacity="1"></stop><stop offset="80%" stop-color="#001220" stop-opacity="1"></stop></linearGradient></defs><defs><linearGradient id="grad2_0" x1="0%" y1="0%" x2="66.7%" y2="100%"><stop offset="20%" stop-color="#fbae3c" stop-opacity="1"></stop><stop offset="80%" stop-color="#fbae3c" stop-opacity="1"></stop></linearGradient></defs><defs><linearGradient id="grad2_1" x1="0%" y1="0%" x2="66.7%" y2="100%"><stop offset="20%" stop-color="#f48350" stop-opacity="1"></stop><stop offset="80%" stop-color="#fbae3c" stop-opacity="1"></stop></linearGradient></defs><defs><linearGradient id="grad2_2" x1="0%" y1="0%" x2="66.7%" y2="100%"><stop offset="20%" stop-color="#f48350" stop-opacity="1"></stop><stop offset="80%" stop-color="#d96162" stop-opacity="1"></stop></linearGradient></defs><defs><linearGradient id="grad2_3" x1="0%" y1="0%" x2="66.7%" y2="100%"><stop offset="20%" stop-color="#af4b6d" stop-opacity="1"></stop><stop offset="80%" stop-color="#d96162" stop-opacity="1"></stop></linearGradient></defs><defs><linearGradient id="grad2_4" x1="0%" y1="0%" x2="66.7%" y2="100%"><stop offset="20%" stop-color="#af4b6d" stop-opacity="1"></stop><stop offset="80%" stop-color="#7c3e6b" stop-opacity="1"></stop></linearGradient></defs><defs><linearGradient id="grad2_5" x1="0%" y1="0%" x2="66.7%" y2="100%"><stop offset="20%" stop-color="#49335c" stop-opacity="1"></stop><stop offset="80%" stop-color="#7c3e6b" stop-opacity="1"></stop></linearGradient></defs><defs><linearGradient id="grad2_6" x1="0%" y1="0%" x2="66.7%" y2="100%"><stop offset="20%" stop-color="#49335c" stop-opacity="1"></stop><stop offset="80%" stop-color="#1d2540" stop-opacity="1"></stop></linearGradient></defs><defs><linearGradient id="grad2_7" x1="0%" y1="0%" x2="66.7%" y2="100%"><stop offset="20%" stop-color="#001220" stop-opacity="1"></stop><stop offset="80%" stop-color="#1d2540" stop-opacity="1"></stop></linearGradient></defs><g transform="translate(900, 0)"><path d="M0 351.5C-25.9 350.3 -51.9 349.1 -78.2 342.7C-104.6 336.4 -131.4 324.9 -144.9 300.9C-158.5 277 -158.8 240.6 -180.8 226.7C-202.8 212.8 -246.5 221.4 -257.2 205.1C-267.9 188.8 -245.7 147.6 -257.7 124.1C-269.7 100.6 -316 94.7 -337.3 77C-358.7 59.3 -355.1 29.6 -351.5 0L0 0Z" fill="#0c1c30"></path><path d="M0 307.6C-22.7 306.5 -45.4 305.5 -68.4 299.9C-91.5 294.3 -114.9 284.3 -126.8 263.3C-138.7 242.4 -139 210.5 -158.2 198.4C-177.5 186.2 -215.7 193.8 -225.1 179.5C-234.4 165.2 -215 129.2 -225.5 108.6C-236 88 -276.5 82.9 -295.2 67.4C-313.8 51.9 -310.7 25.9 -307.6 0L0 0Z" fill="#312c4f"></path><path d="M0 263.7C-19.5 262.7 -38.9 261.8 -58.7 257C-78.4 252.3 -98.5 243.6 -108.7 225.7C-118.9 207.7 -119.1 180.5 -135.6 170C-152.1 159.6 -184.9 166.1 -192.9 153.8C-201 141.6 -184.3 110.7 -193.3 93.1C-202.3 75.4 -237 71 -253 57.7C-269 44.4 -266.3 22.2 -263.7 0L0 0Z" fill="#623965"></path><path d="M0 219.7C-16.2 218.9 -32.4 218.2 -48.9 214.2C-65.4 210.2 -82.1 203 -90.6 188.1C-99 173.1 -99.3 150.4 -113 141.7C-126.8 133 -154.1 138.4 -160.8 128.2C-167.5 118 -153.5 92.3 -161 77.6C-168.6 62.9 -197.5 59.2 -210.8 48.1C-224.2 37 -221.9 18.5 -219.7 0L0 0Z" fill="#96446e"></path><path d="M0 175.8C-13 175.2 -25.9 174.5 -39.1 171.4C-52.3 168.2 -65.7 162.4 -72.5 150.5C-79.2 138.5 -79.4 120.3 -90.4 113.4C-101.4 106.4 -123.3 110.7 -128.6 102.6C-134 94.4 -122.8 73.8 -128.8 62C-134.8 50.3 -158 47.4 -168.7 38.5C-179.3 29.6 -177.6 14.8 -175.8 0L0 0Z" fill="#c55469"></path><path d="M0 131.8C-9.7 131.4 -19.5 130.9 -29.3 128.5C-39.2 126.1 -49.3 121.8 -54.3 112.8C-59.4 103.9 -59.6 90.2 -67.8 85C-76.1 79.8 -92.4 83 -96.5 76.9C-100.5 70.8 -92.1 55.4 -96.6 46.5C-101.1 37.7 -118.5 35.5 -126.5 28.9C-134.5 22.2 -133.2 11.1 -131.8 0L0 0Z" fill="#e9705a"></path><path d="M0 87.9C-6.5 87.6 -13 87.3 -19.6 85.7C-26.1 84.1 -32.8 81.2 -36.2 75.2C-39.6 69.2 -39.7 60.2 -45.2 56.7C-50.7 53.2 -61.6 55.4 -64.3 51.3C-67 47.2 -61.4 36.9 -64.4 31C-67.4 25.1 -79 23.7 -84.3 19.2C-89.7 14.8 -88.8 7.4 -87.9 0L0 0Z" fill="#fa9845"></path><path d="M0 43.9C-3.2 43.8 -6.5 43.6 -9.8 42.8C-13.1 42 -16.4 40.6 -18.1 37.6C-19.8 34.6 -19.9 30.1 -22.6 28.3C-25.4 26.6 -30.8 27.7 -32.2 25.6C-33.5 23.6 -30.7 18.5 -32.2 15.5C-33.7 12.6 -39.5 11.8 -42.2 9.6C-44.8 7.4 -44.4 3.7 -43.9 0L0 0Z" fill="#fbae3c"></path></g><g transform="translate(0, 600)"><path d="M0 -351.5C25.7 -349.5 51.4 -347.5 78.2 -342.7C105.1 -338 133.1 -330.6 147.5 -306.3C161.9 -282.1 162.8 -241.1 175.2 -219.7C187.6 -198.3 211.7 -196.6 236.1 -188.3C260.5 -180 285.3 -165.1 301.8 -145.4C318.3 -125.6 326.5 -101.1 333.4 -76.1C340.3 -51.1 345.9 -25.5 351.5 0L0 0Z" fill="#0c1c30"></path><path d="M0 -307.6C22.5 -305.8 45 -304 68.4 -299.9C91.9 -295.7 116.5 -289.2 129.1 -268C141.7 -246.8 142.4 -210.9 153.3 -192.2C164.2 -173.5 185.2 -172 206.6 -164.8C228 -157.5 249.7 -144.4 264.1 -127.2C278.5 -109.9 285.7 -88.5 291.7 -66.6C297.8 -44.7 302.7 -22.3 307.6 0L0 0Z" fill="#312c4f"></path><path d="M0 -263.7C19.3 -262.1 38.5 -260.6 58.7 -257C78.8 -253.5 99.8 -247.9 110.6 -229.7C121.5 -211.6 122.1 -180.8 131.4 -164.8C140.7 -148.7 158.8 -147.5 177.1 -141.2C195.4 -135 214 -123.8 226.4 -109C238.7 -94.2 244.9 -75.8 250.1 -57.1C255.2 -38.3 259.5 -19.2 263.7 0L0 0Z" fill="#623965"></path><path d="M0 -219.7C16.1 -218.4 32.1 -217.2 48.9 -214.2C65.7 -211.2 83.2 -206.6 92.2 -191.5C101.2 -176.3 101.7 -150.7 109.5 -137.3C117.3 -124 132.3 -122.9 147.6 -117.7C162.8 -112.5 178.3 -103.2 188.6 -90.8C199 -78.5 204.1 -63.2 208.4 -47.6C212.7 -31.9 216.2 -16 219.7 0L0 0Z" fill="#96446e"></path><path d="M0 -175.8C12.8 -174.8 25.7 -173.7 39.1 -171.4C52.5 -169 66.5 -165.3 73.8 -153.2C81 -141 81.4 -120.5 87.6 -109.8C93.8 -99.2 105.8 -98.3 118.1 -94.1C130.3 -90 142.7 -82.5 150.9 -72.7C159.2 -62.8 163.3 -50.6 166.7 -38.1C170.2 -25.5 173 -12.8 175.8 0L0 0Z" fill="#c55469"></path><path d="M0 -131.8C9.6 -131.1 19.3 -130.3 29.3 -128.5C39.4 -126.7 49.9 -124 55.3 -114.9C60.7 -105.8 61 -90.4 65.7 -82.4C70.4 -74.4 79.4 -73.7 88.5 -70.6C97.7 -67.5 107 -61.9 113.2 -54.5C119.4 -47.1 122.4 -37.9 125 -28.5C127.6 -19.2 129.7 -9.6 131.8 0L0 0Z" fill="#e9705a"></path><path d="M0 -87.9C6.4 -87.4 12.8 -86.9 19.6 -85.7C26.3 -84.5 33.3 -82.6 36.9 -76.6C40.5 -70.5 40.7 -60.3 43.8 -54.9C46.9 -49.6 52.9 -49.2 59 -47.1C65.1 -45 71.3 -41.3 75.5 -36.3C79.6 -31.4 81.6 -25.3 83.4 -19C85.1 -12.8 86.5 -6.4 87.9 0L0 0Z" fill="#fa9845"></path><path d="M0 -43.9C3.2 -43.7 6.4 -43.4 9.8 -42.8C13.1 -42.2 16.6 -41.3 18.4 -38.3C20.2 -35.3 20.3 -30.1 21.9 -27.5C23.5 -24.8 26.5 -24.6 29.5 -23.5C32.6 -22.5 35.7 -20.6 37.7 -18.2C39.8 -15.7 40.8 -12.6 41.7 -9.5C42.5 -6.4 43.2 -3.2 43.9 0L0 0Z" fill="#fbae3c"></path></g></svg>