<svg id="visual" viewBox="0 0 900 600" width="900" height="600" xmlns="http://www.w3.org/2000/svg" xmlns:xlink="http://www.w3.org/1999/xlink" version="1.1"><rect x="0" y="0" width="900" height="600" fill="#002233"></rect><path d="M0 468L21.5 462.8C43 457.7 86 447.3 128.8 443.5C171.7 439.7 214.3 442.3 257.2 432.7C300 423 343 401 385.8 404C428.7 407 471.3 435 514.2 455.2C557 475.3 600 487.7 642.8 490.8C685.7 494 728.3 488 771.2 472.5C814 457 857 432 878.5 419.5L900 407L900 601L878.5 601C857 601 814 601 771.2 601C728.3 601 685.7 601 642.8 601C600 601 557 601 514.2 601C471.3 601 428.7 601 385.8 601C343 601 300 601 257.2 601C214.3 601 171.7 601 128.8 601C86 601 43 601 21.5 601L0 601Z" fill="#0066FF" stroke-linecap="round" stroke-linejoin="miter"></path></svg>