<svg id="visual" viewBox="0 0 900 600" width="900" height="600" xmlns="http://www.w3.org/2000/svg" xmlns:xlink="http://www.w3.org/1999/xlink" version="1.1"><rect x="0" y="0" width="900" height="600" fill="#002233"></rect><path d="M0 159L21.5 156.5C43 154 86 149 128.8 153C171.7 157 214.3 170 257.2 178.5C300 187 343 191 385.8 185.2C428.7 179.3 471.3 163.7 514.2 166.8C557 170 600 192 642.8 196.3C685.7 200.7 728.3 187.3 771.2 172C814 156.7 857 139.3 878.5 130.7L900 122L900 0L878.5 0C857 0 814 0 771.2 0C728.3 0 685.7 0 642.8 0C600 0 557 0 514.2 0C471.3 0 428.7 0 385.8 0C343 0 300 0 257.2 0C214.3 0 171.7 0 128.8 0C86 0 43 0 21.5 0L0 0Z" fill="#0066FF" stroke-linecap="round" stroke-linejoin="miter"></path></svg>